<svg width="22" height="26" viewBox="0 0 22 26" fill="none" xmlns="http://www.w3.org/2000/svg">
<path fill-rule="evenodd" clip-rule="evenodd" d="M6.13786 2.66667C6.57314 1.12766 7.98813 0 9.6665 0H12.3332C14.0115 0 15.4265 1.12766 15.8618 2.66667H17.6665C19.6915 2.66667 21.3332 4.30829 21.3332 6.33333V22.3333C21.3332 24.3584 19.6915 26 17.6665 26H4.33317C2.30813 26 0.666504 24.3584 0.666504 22.3333V6.33333C0.666504 4.30829 2.30813 2.66667 4.33317 2.66667H6.13786ZM6.13786 4.66667H4.33317C3.4127 4.66667 2.6665 5.41286 2.6665 6.33333V22.3333C2.6665 23.2538 3.4127 24 4.33317 24H17.6665C18.587 24 19.3332 23.2538 19.3332 22.3333V6.33333C19.3332 5.41286 18.587 4.66667 17.6665 4.66667H15.8618C15.4265 6.20567 14.0115 7.33333 12.3332 7.33333H9.6665C7.98813 7.33333 6.57314 6.20567 6.13786 4.66667ZM9.6665 2C8.74603 2 7.99984 2.74619 7.99984 3.66667C7.99984 4.58714 8.74603 5.33333 9.6665 5.33333H12.3332C13.2536 5.33333 13.9998 4.58714 13.9998 3.66667C13.9998 2.74619 13.2536 2 12.3332 2H9.6665ZM5.99984 13C5.99984 12.4477 6.44755 12 6.99984 12H7.01317C7.56546 12 8.01317 12.4477 8.01317 13C8.01317 13.5523 7.56546 14 7.01317 14H6.99984C6.44755 14 5.99984 13.5523 5.99984 13ZM9.99984 13C9.99984 12.4477 10.4476 12 10.9998 12H14.9998C15.5521 12 15.9998 12.4477 15.9998 13C15.9998 13.5523 15.5521 14 14.9998 14H10.9998C10.4476 14 9.99984 13.5523 9.99984 13ZM5.99984 18.3333C5.99984 17.781 6.44755 17.3333 6.99984 17.3333H7.01317C7.56546 17.3333 8.01317 17.781 8.01317 18.3333C8.01317 18.8856 7.56546 19.3333 7.01317 19.3333H6.99984C6.44755 19.3333 5.99984 18.8856 5.99984 18.3333ZM9.99984 18.3333C9.99984 17.781 10.4476 17.3333 10.9998 17.3333H14.9998C15.5521 17.3333 15.9998 17.781 15.9998 18.3333C15.9998 18.8856 15.5521 19.3333 14.9998 19.3333H10.9998C10.4476 19.3333 9.99984 18.8856 9.99984 18.3333Z" fill="#CDD3D4"/>
</svg>
