<svg width="16" height="16" viewBox="0 0 16 16" fill="none" xmlns="http://www.w3.org/2000/svg">
<path fill-rule="evenodd" clip-rule="evenodd" d="M1.5 4.66634C1.5 3.65382 2.32081 2.83301 3.33333 2.83301H4.66667C5.19201 2.83301 5.66574 3.05397 6 3.40803C6.33426 3.05397 6.80799 2.83301 7.33333 2.83301H8.66667C9.19201 2.83301 9.66574 3.05397 10 3.40803C10.3343 3.05397 10.808 2.83301 11.3333 2.83301H12.6667C13.6792 2.83301 14.5 3.65382 14.5 4.66634V11.333C14.5 12.3455 13.6792 13.1663 12.6667 13.1663H11.3333C10.808 13.1663 10.3343 12.9454 10 12.5913C9.66574 12.9454 9.19201 13.1663 8.66667 13.1663H7.33333C6.80799 13.1663 6.33426 12.9454 6 12.5913C5.66574 12.9454 5.19201 13.1663 4.66667 13.1663H3.33333C2.32081 13.1663 1.5 12.3455 1.5 11.333V4.66634ZM6.5 11.333C6.5 11.7932 6.8731 12.1663 7.33333 12.1663H8.66667C9.1269 12.1663 9.5 11.7932 9.5 11.333V4.66634C9.5 4.2061 9.1269 3.83301 8.66667 3.83301H7.33333C6.8731 3.83301 6.5 4.2061 6.5 4.66634V11.333ZM5.5 4.66634C5.5 4.2061 5.1269 3.83301 4.66667 3.83301H3.33333C2.8731 3.83301 2.5 4.2061 2.5 4.66634V11.333C2.5 11.7932 2.8731 12.1663 3.33333 12.1663H4.66667C5.1269 12.1663 5.5 11.7932 5.5 11.333V4.66634ZM10.5 4.66634V11.333C10.5 11.7932 10.8731 12.1663 11.3333 12.1663H12.6667C13.1269 12.1663 13.5 11.7932 13.5 11.333V4.66634C13.5 4.2061 13.1269 3.83301 12.6667 3.83301H11.3333C10.8731 3.83301 10.5 4.2061 10.5 4.66634Z" fill="#1B253B"/>
</svg>
