<svg width="16" height="16" viewBox="0 0 16 16" xmlns="http://www.w3.org/2000/svg">
<path fill-rule="evenodd" clip-rule="evenodd" d="M1.5 4.66683C1.5 3.65431 2.32081 2.8335 3.33333 2.8335H4.66667C5.19201 2.8335 5.66574 3.05446 6 3.40852C6.33426 3.05446 6.80799 2.8335 7.33333 2.8335H8.66667C9.19201 2.8335 9.66574 3.05446 10 3.40852C10.3343 3.05446 10.808 2.8335 11.3333 2.8335H12.6667C13.6792 2.8335 14.5 3.65431 14.5 4.66683V11.3335C14.5 12.346 13.6792 13.1668 12.6667 13.1668H11.3333C10.808 13.1668 10.3343 12.9459 10 12.5918C9.66574 12.9459 9.19201 13.1668 8.66667 13.1668H7.33333C6.80799 13.1668 6.33426 12.9459 6 12.5918C5.66574 12.9459 5.19201 13.1668 4.66667 13.1668H3.33333C2.32081 13.1668 1.5 12.346 1.5 11.3335V4.66683ZM6.5 11.3335C6.5 11.7937 6.8731 12.1668 7.33333 12.1668H8.66667C9.1269 12.1668 9.5 11.7937 9.5 11.3335V4.66683C9.5 4.20659 9.1269 3.8335 8.66667 3.8335H7.33333C6.8731 3.8335 6.5 4.20659 6.5 4.66683V11.3335ZM5.5 4.66683C5.5 4.20659 5.1269 3.8335 4.66667 3.8335H3.33333C2.8731 3.8335 2.5 4.20659 2.5 4.66683V11.3335C2.5 11.7937 2.8731 12.1668 3.33333 12.1668H4.66667C5.1269 12.1668 5.5 11.7937 5.5 11.3335V4.66683ZM10.5 4.66683V11.3335C10.5 11.7937 10.8731 12.1668 11.3333 12.1668H12.6667C13.1269 12.1668 13.5 11.7937 13.5 11.3335V4.66683C13.5 4.20659 13.1269 3.8335 12.6667 3.8335H11.3333C10.8731 3.8335 10.5 4.20659 10.5 4.66683Z"
fill="#ffffff"/>
</svg>
