<svg width="20" height="20" viewBox="0 0 20 20" fill="none" xmlns="http://www.w3.org/2000/svg">
<path d="M14.3895 7.50379C14.5021 7.61168 14.636 7.67605 14.7991 7.67287C15.0295 7.67469 15.2243 7.55592 15.3189 7.35692C15.4197 7.14478 15.379 6.91767 15.1898 6.73545C14.3124 5.89049 13.4332 5.04735 12.5511 4.20648C12.3061 3.97303 11.9566 3.97031 11.7301 4.18789C11.4997 4.4091 11.5026 4.73458 11.7513 4.97392C12.6287 5.81933 13.5098 6.66111 14.3895 7.50379Z" fill="#EEEEEE"/>
<path d="M18.0504 17.0063C15.2173 17.0145 12.3842 17.0108 9.55116 17.0108C9.49015 17.0108 9.42866 17.0108 9.31468 17.0108C9.40217 16.9342 9.45042 16.8952 9.49535 16.8526C10.5893 15.8051 11.6823 14.757 12.7758 13.709C14.487 12.0689 16.1973 10.4284 17.9099 8.78976C18.5124 8.21316 18.7608 7.51689 18.6856 6.71047C18.6113 5.91629 18.2462 5.25583 17.6639 4.69736C16.6669 3.74089 15.669 2.78533 14.672 1.82932C14.3948 1.56369 14.086 1.33976 13.735 1.17022C12.6415 0.642126 11.2524 0.702868 10.2966 1.68744C9.52089 2.48616 8.69178 3.23682 7.88632 4.00879C5.75372 6.05273 3.62253 8.09802 1.48709 10.1392C1.1404 10.4706 0.89588 10.8527 0.769125 11.3056C0.740747 11.4062 0.752098 11.5173 0.684937 11.6075C0.684937 11.8563 0.684937 12.1052 0.684937 12.3541C0.725139 12.5236 0.722301 12.6995 0.779057 12.8672C0.95973 13.3989 1.25581 13.864 1.66445 14.2588C2.66572 15.2262 3.67314 16.1872 4.67866 17.15C4.95204 17.4116 5.26136 17.6309 5.60426 17.7973C5.99587 17.9868 6.40688 18.125 6.85525 18.125C10.648 18.1246 14.4407 18.125 18.2334 18.1246C18.5725 18.1246 18.7385 17.999 18.8189 17.6835C18.8189 17.5929 18.8189 17.5027 18.8189 17.412C18.6676 17.0942 18.4027 17.0054 18.0504 17.0063ZM4.54387 8.74353C6.77485 6.60984 9.00204 4.47252 11.2326 2.33838C11.7084 1.88326 12.4074 1.79306 13.1041 2.08544C13.377 2.20012 13.6187 2.35832 13.8296 2.5605C14.8479 3.53645 15.8671 4.51151 16.8845 5.48837C17.3092 5.89634 17.5542 6.38364 17.5741 6.92171C17.5679 7.39405 17.3977 7.74717 17.0789 8.05133C15.2093 9.83553 13.3458 11.6252 11.4804 13.413C11.1342 13.7448 10.7851 14.0743 10.4436 14.4112C10.3666 14.4873 10.3287 14.4823 10.253 14.4093C8.35219 12.583 6.44898 10.7594 4.54339 8.93799C4.46015 8.85866 4.46299 8.82104 4.54387 8.74353ZM8.1526 16.6024C7.85794 16.8857 7.50038 17.0185 7.08511 17.0172C6.536 17.0108 6.05121 16.8268 5.66291 16.4637C4.7288 15.5915 3.81172 14.7031 2.88849 13.8205C2.71727 13.6569 2.53991 13.4977 2.38241 13.3223C1.95107 12.8418 1.72877 12.2947 1.8508 11.6505C1.90282 11.3754 2.04282 11.1438 2.24856 10.947C2.68275 10.5313 3.11929 10.1179 3.5478 9.69727C3.63388 9.61296 3.67456 9.63154 3.74928 9.70362C5.64966 11.5291 7.55193 13.3527 9.45704 15.1736C9.53555 15.2484 9.53271 15.2842 9.45609 15.3558C9.0186 15.7688 8.58584 16.1858 8.1526 16.6024Z" fill="#EEEEEE"/>
</svg>
