<svg width="20" height="20" viewBox="0 0 20 20" fill="none" xmlns="http://www.w3.org/2000/svg">
<path fill-rule="evenodd" clip-rule="evenodd" d="M6.88367 1.25867C7.80827 0.334058 9.17333 0 10.8649 0H14.7601C16.4517 0 17.8167 0.334058 18.7413 1.25867C19.6659 2.18327 20 3.54833 20 5.23992V9.13508C20 10.8267 19.6659 12.1917 18.7413 13.1163C17.8167 14.0409 16.4517 14.375 14.7601 14.375H13.7399C13.3558 14.375 13.0444 14.0636 13.0444 13.6794V10.8044C13.0444 9.25006 12.7292 8.34294 12.1931 7.80686C11.6571 7.27078 10.7499 6.95565 9.19556 6.95565H6.32056C5.93641 6.95565 5.625 6.64423 5.625 6.26008V5.23992C5.625 3.54833 5.95906 2.18327 6.88367 1.25867ZM7.86734 2.24234C7.33127 2.77842 7.01613 3.68554 7.01613 5.23992V5.56452H9.19556C10.8872 5.56452 12.2522 5.89857 13.1768 6.82318C14.1014 7.74779 14.4355 9.11285 14.4355 10.8044V12.9839H14.7601C16.3145 12.9839 17.2216 12.6687 17.7577 12.1327C18.2937 11.5966 18.6089 10.6895 18.6089 9.13508V5.23992C18.6089 3.68554 18.2937 2.77842 17.7577 2.24234C17.2216 1.70627 16.3145 1.39113 14.7601 1.39113H10.8649C9.31054 1.39113 8.40342 1.70627 7.86734 2.24234Z" fill="#CDD3D4"/>
<path fill-rule="evenodd" clip-rule="evenodd" d="M1.25867 6.88367C2.18327 5.95906 3.54833 5.625 5.23992 5.625H9.13508C10.8267 5.625 12.1917 5.95906 13.1163 6.88367C14.0409 7.80827 14.375 9.17333 14.375 10.8649V14.7601C14.375 16.4517 14.0409 17.8167 13.1163 18.7413C12.1917 19.6659 10.8267 20 9.13508 20H5.23992C3.54833 20 2.18327 19.6659 1.25867 18.7413C0.334058 17.8167 0 16.4517 0 14.7601V10.8649C0 9.17333 0.334058 7.80827 1.25867 6.88367ZM2.24234 7.86734C1.70627 8.40342 1.39113 9.31054 1.39113 10.8649V14.7601C1.39113 16.3145 1.70627 17.2216 2.24234 17.7577C2.77842 18.2937 3.68554 18.6089 5.23992 18.6089H9.13508C10.6895 18.6089 11.5966 18.2937 12.1327 17.7577C12.6687 17.2216 12.9839 16.3145 12.9839 14.7601V10.8649C12.9839 9.31054 12.6687 8.40342 12.1327 7.86734C11.5966 7.33127 10.6895 7.01613 9.13508 7.01613H5.23992C3.68554 7.01613 2.77842 7.33127 2.24234 7.86734Z" fill="#CDD3D4"/>
<path fill-rule="evenodd" clip-rule="evenodd" d="M10.4186 10.2281C10.6933 10.5328 10.6939 11.0275 10.4199 11.333L6.77631 15.3955C6.64463 15.5423 6.46586 15.6249 6.27939 15.625C6.09293 15.6251 5.91406 15.5428 5.78221 15.3962L3.95575 13.3649C3.68142 13.0598 3.68142 12.5652 3.95575 12.2601C4.23009 11.955 4.67488 11.955 4.94922 12.2601L6.27831 13.7382L9.42515 10.2295C9.69913 9.92404 10.1439 9.92341 10.4186 10.2281Z" fill="#CDD3D4"/>
</svg>
