<svg width="16" height="16" viewBox="0 0 16 16" fill="none" xmlns="http://www.w3.org/2000/svg">
<path fill-rule="evenodd" clip-rule="evenodd" d="M8.00016 3.16699C7.17174 3.16699 6.50016 3.83856 6.50016 4.66699C6.50016 5.49542 7.17174 6.16699 8.00016 6.16699C8.82859 6.16699 9.50016 5.49542 9.50016 4.66699C9.50016 3.83856 8.82859 3.16699 8.00016 3.16699ZM5.50016 4.66699C5.50016 3.28628 6.61945 2.16699 8.00016 2.16699C9.38087 2.16699 10.5002 3.28628 10.5002 4.66699C10.5002 6.0477 9.38087 7.16699 8.00016 7.16699C6.61945 7.16699 5.50016 6.0477 5.50016 4.66699ZM3.3335 5.83366C2.87326 5.83366 2.50016 6.20675 2.50016 6.66699C2.50016 7.12723 2.87326 7.50033 3.3335 7.50033C3.79373 7.50033 4.16683 7.12723 4.16683 6.66699C4.16683 6.20675 3.79373 5.83366 3.3335 5.83366ZM1.50016 6.66699C1.50016 5.65447 2.32097 4.83366 3.3335 4.83366C4.34602 4.83366 5.16683 5.65447 5.16683 6.66699C5.16683 7.67951 4.34602 8.50033 3.3335 8.50033C2.32097 8.50033 1.50016 7.67951 1.50016 6.66699ZM12.6668 5.83366C12.2066 5.83366 11.8335 6.20675 11.8335 6.66699C11.8335 7.12723 12.2066 7.50033 12.6668 7.50033C13.1271 7.50033 13.5002 7.12723 13.5002 6.66699C13.5002 6.20675 13.1271 5.83366 12.6668 5.83366ZM10.8335 6.66699C10.8335 5.65447 11.6543 4.83366 12.6668 4.83366C13.6794 4.83366 14.5002 5.65447 14.5002 6.66699C14.5002 7.67951 13.6794 8.50033 12.6668 8.50033C11.6543 8.50033 10.8335 7.67951 10.8335 6.66699ZM8.00016 9.16699C6.80801 9.16699 5.78666 9.90343 5.36852 10.9481C5.23856 11.2727 5.16683 11.6275 5.16683 12.0003V12.8337H10.8335V12.0003C10.8335 11.6275 10.7618 11.2727 10.6318 10.9481C10.2137 9.90343 9.19231 9.16699 8.00016 9.16699ZM11.8335 12.8337H14.1668V12.0003C14.1668 11.1719 13.4953 10.5003 12.6668 10.5003C12.2831 10.5003 11.9332 10.644 11.6675 10.8816C11.7755 11.236 11.8335 11.6117 11.8335 12.0003V12.8337ZM11.2385 9.94837C10.5589 8.87808 9.36302 8.16699 8.00016 8.16699C6.63731 8.16699 5.4414 8.87808 4.76183 9.94837C4.35711 9.66619 3.86461 9.50033 3.3335 9.50033C1.95278 9.50033 0.833496 10.6196 0.833496 12.0003V13.3337C0.833496 13.6098 1.05735 13.8337 1.3335 13.8337H14.6668C14.943 13.8337 15.1668 13.6098 15.1668 13.3337V12.0003C15.1668 10.6196 14.0475 9.50033 12.6668 9.50033C12.1357 9.50033 11.6432 9.66619 11.2385 9.94837ZM4.33279 10.8816C4.06715 10.644 3.7172 10.5003 3.3335 10.5003C2.50507 10.5003 1.8335 11.1719 1.8335 12.0003V12.8337H4.16683V12.0003C4.16683 11.6117 4.2248 11.236 4.33279 10.8816Z" fill="#CDD3D4"/>
</svg>
