<svg width="24" height="24" viewBox="0 0 24 24" fill="none" xmlns="http://www.w3.org/2000/svg">
<path fill-rule="evenodd" clip-rule="evenodd" d="M19.8839 4.11613C19.3957 3.62798 18.6043 3.62798 18.1161 4.11613L9.75 12.4822V14.25H11.5178L19.8839 5.8839C20.372 5.39574 20.372 4.60429 19.8839 4.11613ZM17.0555 3.05547C18.1294 1.98153 19.8706 1.98153 20.9445 3.05547C22.0185 4.12941 22.0185 5.87062 20.9445 6.94456L12.3588 15.5303C12.2181 15.671 12.0273 15.75 11.8284 15.75H9C8.58579 15.75 8.25 15.4142 8.25 15V12.1716C8.25 11.9727 8.32902 11.7819 8.46967 11.6413L17.0555 3.05547ZM6 5.75002C5.30964 5.75002 4.75 6.30966 4.75 7.00002V18C4.75 18.6904 5.30964 19.25 6 19.25H17C17.6904 19.25 18.25 18.6904 18.25 18V13C18.25 12.5858 18.5858 12.25 19 12.25C19.4142 12.25 19.75 12.5858 19.75 13V18C19.75 19.5188 18.5188 20.75 17 20.75H6C4.48122 20.75 3.25 19.5188 3.25 18V7.00002C3.25 5.48124 4.48122 4.25002 6 4.25002H11C11.4142 4.25002 11.75 4.5858 11.75 5.00002C11.75 5.41423 11.4142 5.75002 11 5.75002H6Z" 
fill="#131423"/>
</svg>
