<svg width="16" height="16" viewBox="0 0 16 16" fill="none" xmlns="http://www.w3.org/2000/svg">
<path fill-rule="evenodd" clip-rule="evenodd" d="M5.47998 1.58C5.47998 1.25967 5.7007 1 5.97298 1H9.91698C10.1893 1 10.41 1.25967 10.41 1.58C10.41 1.90033 10.1893 2.16 9.91698 2.16H5.97298C5.7007 2.16 5.47998 1.90033 5.47998 1.58Z" fill="#CDD3D4"/>
<path fill-rule="evenodd" clip-rule="evenodd" d="M7.94501 6.51001C8.18525 6.51001 8.38001 6.74018 8.38001 7.0241V9.76592C8.38001 10.0498 8.18525 10.28 7.94501 10.28C7.70477 10.28 7.51001 10.0498 7.51001 9.76592V7.0241C7.51001 6.74018 7.70477 6.51001 7.94501 6.51001Z" fill="#CDD3D4"/>
<path fill-rule="evenodd" clip-rule="evenodd" d="M2 9.70002C2 6.49677 4.66167 3.90002 7.945 3.90002C11.2283 3.90002 13.89 6.49677 13.89 9.70002C13.89 12.9033 11.2283 15.5 7.945 15.5C4.66167 15.5 2 12.9033 2 9.70002ZM7.945 4.89431C5.22452 4.89431 3.01914 7.0459 3.01914 9.70002C3.01914 12.3542 5.22452 14.5057 7.945 14.5057C10.6655 14.5057 12.8709 12.3542 12.8709 9.70002C12.8709 7.0459 10.6655 4.89431 7.945 4.89431Z" fill="#CDD3D4"/>
</svg>
