<svg width="16" height="16" viewBox="0 0 16 16" fill="none" xmlns="http://www.w3.org/2000/svg">
<path fill-rule="evenodd" clip-rule="evenodd" d="M6 2.5C4.80338 2.5 3.83333 3.47005 3.83333 4.66667C3.83333 5.86328 4.80338 6.83333 6 6.83333C6.64477 6.83333 7.22377 6.55169 7.62066 6.10472C7.62335 6.1016 7.62608 6.09851 7.62885 6.09544C7.96367 5.71404 8.16667 5.21406 8.16667 4.66667C8.16667 4.11926 7.96366 3.61926 7.62883 3.23786C7.62607 3.23482 7.62336 3.23174 7.62069 3.22864C7.22379 2.78165 6.64479 2.5 6 2.5ZM8.00003 2.21141C7.45475 1.76669 6.75852 1.5 6 1.5C4.2511 1.5 2.83333 2.91776 2.83333 4.66667C2.83333 6.41557 4.2511 7.83333 6 7.83333C6.75852 7.83333 7.45475 7.56665 8.00004 7.12192C8.54505 7.56628 9.24154 7.83333 10 7.83333C11.7489 7.83333 13.1667 6.41557 13.1667 4.66667C13.1667 2.91777 11.7489 1.5 10 1.5C9.24154 1.5 8.54505 1.76706 8.00003 2.21141ZM8.6669 2.95848C8.98322 3.45131 9.16667 4.03756 9.16667 4.66667C9.16667 5.29577 8.98322 5.88202 8.6669 6.37486C9.03474 6.66247 9.49723 6.83333 10 6.83333C11.1966 6.83333 12.1667 5.86328 12.1667 4.66667C12.1667 3.47005 11.1966 2.5 10 2.5C9.49723 2.5 9.03474 2.67087 8.6669 2.95848ZM6 9.83333C4.067 9.83333 2.5 11.4003 2.5 13.3333V13.5H9.5V13.3333C9.5 12.037 8.79523 10.9053 7.74794 10.3004C7.23361 10.0033 6.63665 9.83333 6 9.83333ZM8.00013 9.30116C7.39762 9.00171 6.71847 8.83333 6 8.83333C3.51472 8.83333 1.5 10.8481 1.5 13.3333V14C1.5 14.2761 1.72386 14.5 2 14.5H14C14.2761 14.5 14.5 14.2761 14.5 14V13.3333C14.5 10.8481 12.4853 8.83333 10 8.83333C9.28242 8.83333 8.603 9.00164 8.00013 9.30116ZM8.99913 9.9784C9.92026 10.8024 10.5 12.0002 10.5 13.3333V13.5H13.5V13.3333C13.5 11.4003 11.933 9.83333 10 9.83333C9.65185 9.83333 9.31599 9.88403 8.99913 9.9784Z" fill="#212829"/>
</svg>
